{
.appVersion = "3079";
classes = (
{
code = "behDotless-ar.init
hah-ar.init
seen-ar.init
sad-ar.init
tah-ar.init
ain-ar.init
fehDotless-ar.init
kaf-ar.init
lam-ar.init
meem-ar.init
heh-ar.init
";
name = init;
},
{
code = "alef-ar.fina
behDotless-ar.fina
hah-ar.fina
dal-ar.fina
reh-ar.fina
seen-ar.fina
sad-ar.fina
tah-ar.fina
ain-ar.fina
fehDotless-ar.fina
qafDotless-ar.fina
kaf-ar.fina
lam-ar.fina
meem-ar.fina
noonghunna-ar.fina
heh-ar.fina
waw-ar.fina
waw-ar.fina.1
alefMaksura-ar.fina
lam_alef-ar.fina
";
name = fina;
},
{
code = "endofayah-ar
hamza-ar
alef-ar
behDotless-ar
hah-ar
dal-ar
reh-ar
seen-ar
sad-ar
tah-ar
ain-ar
fehDotless-ar
qafDotless-ar
kaf-ar
lam-ar
meem-ar
noonghunna-ar
heh-ar
waw-ar
waw-ar.1
alefMaksura-ar
fehDotless_alefMaksura-ar
lam_alef-ar
";
name = isol;
}
);
copyright = "Copyright 2021 The Raqq Project Authors (github.com/alif-type/raqq)";
customParameters = (
{
name = "Don't use Production Names";
value = 1;
},
{
name = "Disable Subroutines";
value = 1;
},
{
name = "Disable Last Change";
value = 1;
},
{
name = "Write DisplayStrings";
value = 0;
},
{
name = "Use Line Breaks";
value = 1;
},
{
name = "Color Palettes";
value = (
(
"144,41,0,255",
"154,115,18,255",
"71,28,1,255"
)
);
},
{
name = vendorID;
value = ALIF;
},
{
name = localizedDesigner;
value = "Arabic;خالد حسني";
},
{
name = description;
value = "Raqq (رَقّ) is a manuscript Kufic typeface";
}
);
date = "2021-04-25 20:10:22 +0000";
designer = "Khaled Hosny";
designerURL = "https://aliftype.com";
familyName = Raqq;
featurePrefixes = (
{
automatic = 1;
code = "languagesystem DFLT dflt;
";
name = Languagesystems;
}
);
features = (
{
code = "sub alefHamzaabove-ar by alef-ar hamzaabove-ar;
sub alefHamzabelow-ar by alef-ar hamzabelow-ar;
sub alefMadda-ar by alef-ar madda-ar;
sub alefWasla-ar by alef-ar wasla-ar;
sub beh-ar by behDotless-ar dotbelow-ar;
sub teh-ar by behDotless-ar twodotshorizontalabove-ar;
sub theh-ar by behDotless-ar threedotsupabove-ar;

glyphs = (
{
glyphname = "alef-ar";
layers = (
{
anchors = (
{
name = kasra;
position = "{249, -19}";
}
);
layerId = m01;
paths = (
{
closed = 1;
nodes = (
"53 583 OFFCURVE",
"33 564 OFFCURVE",
"10 540 CURVE",
"15 518 OFFCURVE",
"20 493 OFFCURVE",
"20 454 CURVE SMOOTH",
"20 362 OFFCURVE",
"19 258 OFFCURVE",
"19 144 CURVE SMOOTH",
"19 -84 OFFCURVE",
"412 -85 OFFCURVE",
"525 147 CURVE",
"377 6 OFFCURVE",
"75 42 OFFCURVE",
"75 221 CURVE SMOOTH",
"75 296 OFFCURVE",
"80 417 OFFCURVE",
"74 620 CURVE"
);
}
);
width = 535;
}
);
unicode = 0627;
},
{
glyphname = "behDotless-ar.fina";
layers = (
{
anchors = (
{
name = bottom;
position = "{1094, -30}";
},
{
name = kasra;
position = "{965, 0}";
},
{
name = ring;
position = "{594, 0}";
},
{
name = top;
position = "{1114, 220}";
}
);
layerId = m01;
paths = (
{
closed = 1;
nodes = (
"1187 -28 LINE",
"1198 105 OFFCURVE",
"1176 206 OFFCURVE",
"1150 261 CURVE",
"1129 228 OFFCURVE",
"1102 198 OFFCURVE",
"1067 179 CURVE",
"1099 139 OFFCURVE",
"1119 96 OFFCURVE",
"1117 42 CURVE",
"1148 75 LINE",
"1063 61 OFFCURVE",
"977 61 OFFCURVE",
"795 59 CURVE SMOOTH",
"661 57 OFFCURVE",
"430 59 OFFCURVE",
"199 63 CURVE SMOOTH",
"168 64 OFFCURVE",
"135 65 OFFCURVE",
"104 76 CURVE",
"74 43 OFFCURVE",
"43 17 OFFCURVE",
"10 3 CURVE",
"204 1 OFFCURVE",
"392 2 OFFCURVE",
"587 2 CURVE SMOOTH",
"796 2 OFFCURVE",
"1004 -1 OFFCURVE",
"1210 0 CURVE"
);
}
);
width = 1188;
}
);
},
{
glyphname = "behDotless-ar.medi";
layers = (
{
anchors = (
{
name = bottom;
position = "{50, -21}";
},
{
name = top;
position = "{34, 239}";
}
);
layerId = m01;
paths = (
{
closed = 1;
nodes = (
"132 66 OFFCURVE",
"98 61 OFFCURVE",
"84 99 CURVE SMOOTH",
"71 135 OFFCURVE",
"64 212 OFFCURVE",
"62 275 CURVE",
"43 242 OFFCURVE",
"28 215 OFFCURVE",
"4 186 CURVE",
"9 145 OFFCURVE",
"13 99 OFFCURVE",
"23 66 CURVE",
"-67 66 LINE",
"0 109 LINE",
"0 -48 LINE",
"-69 0 LINE",
"182 0 LINE",
"90 -45 LINE",
"155 110 LINE",
"166 67 LINE"
);
}
);
width = 100;
}
);
},
{
glyphname = "behDotless-ar.medi.meem";
layers = (
{
anchors = (
{
name = bottom;
position = "{50, 0}";
},
{
name = ring;
position = "{50, 0}";
},
{
name = top;
position = "{24, 268}";
}
);
layerId = m01;
paths = (
{
closed = 1;
nodes = (
"118 66 OFFCURVE",
"98 61 OFFCURVE",
"82 99 CURVE SMOOTH",
"67 135 OFFCURVE",
"57 241 OFFCURVE",
"55 304 CURVE",
"36 271 OFFCURVE",
"19 244 OFFCURVE",
"-5 215 CURVE",
"-5 158 OFFCURVE",
"-2 101 OFFCURVE",
"5 44 CURVE SMOOTH",
"7 28 OFFCURVE",
"18 0 OFFCURVE",
"50 0 CURVE",
"182 0 LINE",
"90 -45 LINE",
"155 110 LINE",
"164 66 LINE"
);
}
);
width = 100;
}
);
},
{
glyphname = "behDotless-ar.init";
layers = (
{
anchors = (
{
name = bottom;
position = "{55, 19}";
},
{
name = fatha;
position = "{65, 354}";
},
{
name = ring;
position = "{40, 0}";
},
{
name = top;
position = "{25, 301}";
}
);
layerId = m01;
paths = (
{
closed = 1;
nodes = (
"43 320 OFFCURVE",
"14 278 OFFCURVE",
"-21 244 CURVE",
"-15 282 LINE",
"10 205 OFFCURVE",
"5 141 OFFCURVE",
"2 42 CURVE",
"32 66 LINE",
"-27 66 LINE",
"-10 121 LINE",
"-10 -15 LINE",
"-29 0 LINE",
"55 0 LINE",
"66 0 OFFCURVE",
"74 7 OFFCURVE",
"74 18 CURVE SMOOTH",
"74 179 OFFCURVE",
"76 217 OFFCURVE",
"53 375 CURVE",
"71 369 LINE"
);
}
);
width = 84;
}
);
},
{
glyphname = "reh-ar";
layers = (
{
anchors = (
{
name = fatha;
position = "{225, 280}";
}
);
background = {
backgroundImage = {
imagePath = "1/image-0056.jpg";
transform = "{10, 0, 0, 10, -7554, -4422}";
};
};
layerId = m01;
paths = (
{
closed = 1;
nodes = (
"234 245 OFFCURVE",
"229 241 OFFCURVE",
"223 237 CURVE SMOOTH",
"202 223 OFFCURVE",
"146 161 OFFCURVE",
"120 121 CURVE SMOOTH",
"116 115 OFFCURVE",
"113 106 OFFCURVE",
"123 102 CURVE SMOOTH",
"154 88 OFFCURVE",
"200 89 OFFCURVE",
"237 90 CURVE",
"239 88 OFFCURVE",
"240 85 OFFCURVE",
"240 83 CURVE",
"200 77 OFFCURVE",
"142 80 OFFCURVE",
"99 96 CURVE",
"79 72 OFFCURVE",
"40 45 OFFCURVE",
"10 31 CURVE",
"39 7 OFFCURVE",
"229 -13 OFFCURVE",
"309 11 CURVE SMOOTH",
"329 17 OFFCURVE",
"342 25 OFFCURVE",
"345 45 CURVE SMOOTH",
"357 120 OFFCURVE",
"295 203 OFFCURVE",
"246 237 CURVE SMOOTH"
);
}
);
width = 357;
}
);
unicode = 0631;
},
{
glyphname = "ain-ar.medi";
layers = (
{
layerId = m01;
paths = (
{
closed = 1;
nodes = (
"86 233 OFFCURVE",
"52 196 OFFCURVE",
"16 163 CURVE",
"73 160 LINE",
"39 182 OFFCURVE",
"4 209 OFFCURVE",
"-18 241 CURVE",
"-42 209 OFFCURVE",
"-67 177 OFFCURVE",
"-97 153 CURVE",
"-63 119 OFFCURVE",
"-24 88 OFFCURVE",
"18 60 CURVE",
"33 66 LINE",
"-75 66 LINE",
"-10 111 LINE",
"-10 -45 LINE",
"-75 0 LINE",
"180 1 LINE",
"154 -30 LINE",
"154 120 LINE",
"190 66 LINE",
"96 66 LINE",
"131 50 LINE",
"136 117 OFFCURVE",
"132 204 OFFCURVE",
"115 273 CURVE"
);
}
);
width = 140;
}
);
},
{
glyphname = "kaf-ar.init";
layers = (
{
layerId = m01;
paths = (
{
closed = 1;
nodes = (
"105 1 OFFCURVE",
"252 3 OFFCURVE",
"402 4 CURVE SMOOTH",
"551 5 OFFCURVE",
"705 4 OFFCURVE",
"859 4 CURVE SMOOTH",
"876 4 OFFCURVE",
"907 9 OFFCURVE",
"907 26 CURVE SMOOTH",
"907 52 OFFCURVE",
"902 79 OFFCURVE",
"897 104 CURVE SMOOTH",
"890 141 OFFCURVE",
"883 156 OFFCURVE",
"839 155 CURVE SMOOTH",
"721 151 OFFCURVE",
"581 145 OFFCURVE",
"457 144 CURVE SMOOTH",
"341 143 OFFCURVE",
"226 143 OFFCURVE",
"140 147 CURVE SMOOTH",
"119 148 OFFCURVE",
"86 155 OFFCURVE",
"98 172 CURVE SMOOTH",
"121 205 OFFCURVE",
"147 243 OFFCURVE",
"170 276 CURVE",
"159 283 LINE",
"111 222 OFFCURVE",
"64 155 OFFCURVE",
"22 106 CURVE SMOOTH",
"10 92 OFFCURVE",
"20 84 OFFCURVE",
"33 81 CURVE SMOOTH",
"49 78 OFFCURVE",
"74 79 OFFCURVE",
"98 79 CURVE SMOOTH",
"244 80 OFFCURVE",
"391 79 OFFCURVE",
"504 80 CURVE SMOOTH",
"615 81 OFFCURVE",
"694 78 OFFCURVE",
"772 75 CURVE",
"773 73 OFFCURVE",
"773 72 OFFCURVE",
"772 70 CURVE",
"501 68 OFFCURVE",
"231 68 OFFCURVE",
"-40 66 CURVE",
"0 111 LINE",
"0 -45 LINE",
"-39 0 LINE"
);
}
);
width = 917;
}
);
},
{
glyphname = "lam-ar.medi";
layers = (
{
anchors = (
{
name = fatha;
position = "{-86, 520}";
}
);
layerId = m01;
paths = (
{
closed = 1;
nodes = (
"38 605 OFFCURVE",
"13 575 OFFCURVE",
"-12 552 CURVE",
"4 503 OFFCURVE",
"9 375 OFFCURVE",
"9 288 CURVE SMOOTH",
"9 201 OFFCURVE",
"3 115 OFFCURVE",
"-1 28 CURVE SMOOTH",
"-2 15 OFFCURVE",
"9 -1 OFFCURVE",
"46 0 CURVE",
"186 0 LINE",
"186 66 LINE",
"115 66 LINE",
"183 58 LINE",
"144 80 OFFCURVE",
"85 122 OFFCURVE",
"62 150 CURVE",
"68 282 OFFCURVE",
"75 463 OFFCURVE",
"56 640 CURVE"
);
}
);
width = 175;
}
);
},
{
glyphname = "meem-ar.fina";
layers = (
{
layerId = m01;
paths = (
{
closed = 1;
nodes = (
"196 63 OFFCURVE",
"151 64 OFFCURVE",
"107 76 CURVE",
"79 47 OFFCURVE",
"46 25 OFFCURVE",
"10 4 CURVE",
"116 -3 OFFCURVE",
"242 -11 OFFCURVE",
"347 -11 CURVE",
"239 65 LINE"
);
},
{
closed = 1;
nodes = (
"346 117 OFFCURVE",
"344 119 OFFCURVE",
"344 124 CURVE SMOOTH",
"344 128 OFFCURVE",
"346 130 OFFCURVE",
"351 130 CURVE SMOOTH",
"355 130 OFFCURVE",
"357 128 OFFCURVE",
"357 124 CURVE SMOOTH",
"357 119 OFFCURVE",
"355 117 OFFCURVE",
"351 117 CURVE SMOOTH"
);
},
{
closed = 1;
nodes = (
"286 -11 OFFCURVE",
"347 -11 CURVE SMOOTH",
"464 -11 OFFCURVE",
"478 11 OFFCURVE",
"478 71 CURVE SMOOTH",
"478 152 OFFCURVE",
"427 250 OFFCURVE",
"355 250 CURVE SMOOTH",
"281 250 OFFCURVE",
"210 159 OFFCURVE",
"210 64 CURVE SMOOTH",
"210 1 OFFCURVE"
);
}
);
width = 475;
},
{
associatedMasterId = m01;
layerId = "E0CE7A6A-A561-47FC-A655-1D4A4B2AE5B5";
name = "26 Apr 21, 22:21";
paths = (
{
closed = 1;
nodes = (
"457 -12 OFFCURVE",
"478 5 OFFCURVE",
"478 64 CURVE SMOOTH",
"478 145 OFFCURVE",
"425 243 OFFCURVE",
"354 243 CURVE SMOOTH",
"282 243 OFFCURVE",
"221 162 OFFCURVE",
"221 57 CURVE SMOOTH",
"221 4 OFFCURVE",
"265 -12 OFFCURVE",
"354 -12 CURVE SMOOTH"
);
},
{
closed = 1;
nodes = (
"353 105 OFFCURVE",
"351 107 OFFCURVE",
"351 112 CURVE SMOOTH",
"351 116 OFFCURVE",
"353 118 OFFCURVE",
"358 118 CURVE SMOOTH",
"362 118 OFFCURVE",
"364 116 OFFCURVE",
"364 112 CURVE SMOOTH",
"364 107 OFFCURVE",
"362 105 OFFCURVE",
"358 105 CURVE SMOOTH"
);
}
);
width = 475;
},
{
associatedMasterId = m01;
layerId = "68EBDF7B-15A5-46E4-9C57-C98FC85622D4";
name = "26 Apr 21, 22:20";
paths = (
{
closed = 1;
nodes = (
"464 -11 OFFCURVE",
"478 12 OFFCURVE",
"478 71 CURVE SMOOTH",
"478 152 OFFCURVE",
"427 250 OFFCURVE",
"355 250 CURVE SMOOTH",
"280 250 OFFCURVE",
"210 159 OFFCURVE",
"210 64 CURVE",
"176 64 OFFCURVE",
"141 67 OFFCURVE",
"107 76 CURVE",
"79 47 OFFCURVE",
"46 25 OFFCURVE",
"10 4 CURVE",
"118 -3 OFFCURVE",
"245 -11 OFFCURVE",
"351 -11 CURVE SMOOTH"
);
},
{
closed = 1;
nodes = (
"346 117 OFFCURVE",
"344 119 OFFCURVE",
"344 124 CURVE SMOOTH",
"344 128 OFFCURVE",
"346 130 OFFCURVE",
"351 130 CURVE SMOOTH",
"355 130 OFFCURVE",
"357 128 OFFCURVE",
"357 124 CURVE SMOOTH",
"357 119 OFFCURVE",
"355 117 OFFCURVE",
"351 117 CURVE SMOOTH"
);
}
);
width = 475;
}
);
},
{
glyphname = "meem-ar.medi";
layers = (
{
layerId = m01;
paths = (
{
closed = 1;
nodes = (
"235 -13 OFFCURVE",
"258 4 OFFCURVE",
"258 63 CURVE SMOOTH",
"258 144 OFFCURVE",
"203 242 OFFCURVE",
"132 242 CURVE SMOOTH",
"60 242 OFFCURVE",
"-1 161 OFFCURVE",
"-1 56 CURVE SMOOTH",
"-1 3 OFFCURVE",
"43 -13 OFFCURVE",
"132 -13 CURVE SMOOTH"
);
},
{
closed = 1;
nodes = (
"131 104 OFFCURVE",
"129 106 OFFCURVE",
"129 111 CURVE SMOOTH",
"129 115 OFFCURVE",
"131 117 OFFCURVE",
"136 117 CURVE SMOOTH",
"140 117 OFFCURVE",
"142 115 OFFCURVE",
"142 111 CURVE SMOOTH",
"142 106 OFFCURVE",
"140 104 OFFCURVE",
"136 104 CURVE SMOOTH"
);
}
);
width = 255;
}
);
},
{
glyphname = "noonghunna-ar";
layers = (
{
anchors = (
{
name = fatha;
position = "{67, 125}";
},
{
name = top;
position = "{39, 105}";
}
);
layerId = m01;
paths = (
{
closed = 1;
nodes = (
"10 68 LINE",
"62 60 OFFCURVE",
"120 32 OFFCURVE",
"141 -22 CURVE SMOOTH",
"169 -95 OFFCURVE",
"161 -237 OFFCURVE",
"153 -362 CURVE",
"109 -366 OFFCURVE",
"61 -360 OFFCURVE",
"20 -346 CURVE",
"1 -379 OFFCURVE",
"-23 -410 OFFCURVE",
"-53 -433 CURVE",
"24 -454 OFFCURVE",
"119 -454 OFFCURVE",
"195 -443 CURVE SMOOTH",
"209 -441 OFFCURVE",
"215 -431 OFFCURVE",
"215 -419 CURVE SMOOTH",
"215 -296 OFFCURVE",
"221 -173 OFFCURVE",
"219 -50 CURVE SMOOTH",
"217 69 OFFCURVE",
"174 128 OFFCURVE",
"79 158 CURVE"
);
}
);
width = 229;
}
);
unicode = 06BA;
},
{
glyphname = "waw-ar";
layers = (
{
layerId = m01;
paths = (
{
closed = 1;
nodes = (
"222 66 OFFCURVE",
"122 65 OFFCURVE",
"106 133 CURVE SMOOTH",
"90 203 OFFCURVE",
"142 305 OFFCURVE",
"228 305 CURVE SMOOTH",
"339 305 OFFCURVE",
"394 97 OFFCURVE",
"374 34 CURVE SMOOTH",
"370 21 OFFCURVE",
"369 11 OFFCURVE",
"335 6 CURVE SMOOTH",
"311 2 OFFCURVE",
"77 -21 OFFCURVE",
"10 26 CURVE",
"42 43 OFFCURVE",
"71 59 OFFCURVE",
"95 96 CURVE",
"141 55 OFFCURVE",
"219 54 OFFCURVE",
"294 64 CURVE",
"294 68 OFFCURVE",
"294 69 OFFCURVE",
"292 73 CURVE"
);
},
{
closed = 1;
nodes = (
"238 178 OFFCURVE",
"240 180 OFFCURVE",
"240 185 CURVE SMOOTH",
"240 189 OFFCURVE",
"238 191 OFFCURVE",
"234 191 CURVE SMOOTH",
"229 191 OFFCURVE",
"227 189 OFFCURVE",
"227 185 CURVE SMOOTH",
"227 180 OFFCURVE",
"229 178 OFFCURVE",
"234 178 CURVE SMOOTH"
);
}
);
width = 388;
}
);
unicode = 0648;
},
{
glyphname = "waw-ar.1";
layers = (
{
layerId = m01;
paths = (
{
closed = 1;
nodes = (
"229 61 OFFCURVE",
"127 65 OFFCURVE",
"111 133 CURVE SMOOTH",
"95 203 OFFCURVE",
"153 305 OFFCURVE",
"231 305 CURVE SMOOTH",
"304 305 OFFCURVE",
"387 177 OFFCURVE",
"381 83 CURVE SMOOTH",
"378 30 OFFCURVE",
"365 22 OFFCURVE",
"343 11 CURVE SMOOTH",
"308 -6 OFFCURVE",
"252 -11 OFFCURVE",
"208 -10 CURVE SMOOTH",
"133 -8 OFFCURVE",
"46 9 OFFCURVE",
"10 35 CURVE",
"42 49 OFFCURVE",
"74 59 OFFCURVE",
"103 96 CURVE",
"149 55 OFFCURVE",
"226 49 OFFCURVE",
"301 59 CURVE",
"301 63 OFFCURVE",
"301 64 OFFCURVE",
"299 68 CURVE"
);
},
{
closed = 1;
nodes = (
"234 179 OFFCURVE",
"236 181 OFFCURVE",
"236 186 CURVE SMOOTH",
"236 190 OFFCURVE",
"234 192 OFFCURVE",
"230 192 CURVE SMOOTH",
"225 192 OFFCURVE",
"223 190 OFFCURVE",
"223 186 CURVE SMOOTH",
"223 181 OFFCURVE",
"225 179 OFFCURVE",
"230 179 CURVE SMOOTH"
);
}
);
width = 391;
}
);
},
{
glyphname = "waw-ar.fina";
layers = (
{
layerId = m01;
paths = (
{
closed = 1;
nodes = (
"229 -3 OFFCURVE",
"127 1 OFFCURVE",
"111 69 CURVE SMOOTH",
"95 139 OFFCURVE",
"153 241 OFFCURVE",
"231 241 CURVE SMOOTH",
"304 241 OFFCURVE",
"387 113 OFFCURVE",
"381 19 CURVE SMOOTH",
"378 -34 OFFCURVE",
"365 -42 OFFCURVE",
"343 -53 CURVE SMOOTH",
"308 -70 OFFCURVE",
"252 -75 OFFCURVE",
"208 -74 CURVE SMOOTH",
"133 -72 OFFCURVE",
"46 -55 OFFCURVE",
"10 -29 CURVE",
"42 -15 OFFCURVE",
"74 -5 OFFCURVE",
"103 32 CURVE",
"149 -9 OFFCURVE",
"226 -15 OFFCURVE",
"301 -5 CURVE",
"301 -1 OFFCURVE",
"301 0 OFFCURVE",
"299 4 CURVE"
);
},
{
closed = 1;
nodes = (
"234 115 OFFCURVE",
"236 117 OFFCURVE",
"236 122 CURVE SMOOTH",
"236 126 OFFCURVE",
"234 128 OFFCURVE",
"230 128 CURVE SMOOTH",
"225 128 OFFCURVE",
"223 126 OFFCURVE",
"223 122 CURVE SMOOTH",
"223 117 OFFCURVE",
"225 115 OFFCURVE",
"230 115 CURVE SMOOTH"
);
}
);
width = 378;
}
);
},
{
glyphname = "waw-ar.fina.1";
layers = (
{
layerId = m01;
paths = (
{
closed = 1;
nodes = (
"222 -3 OFFCURVE",
"122 -4 OFFCURVE",
"106 64 CURVE SMOOTH",
"90 134 OFFCURVE",
"142 236 OFFCURVE",
"228 236 CURVE SMOOTH",
"339 236 OFFCURVE",
"394 28 OFFCURVE",
"374 -35 CURVE SMOOTH",
"370 -48 OFFCURVE",
"369 -58 OFFCURVE",
"335 -63 CURVE SMOOTH",
"311 -67 OFFCURVE",
"77 -90 OFFCURVE",
"10 -43 CURVE",
"42 -26 OFFCURVE",
"71 -10 OFFCURVE",
"95 27 CURVE",
"141 -14 OFFCURVE",
"219 -15 OFFCURVE",
"294 -5 CURVE",
"294 -1 OFFCURVE",
"294 0 OFFCURVE",
"292 4 CURVE"
);
},
{
closed = 1;
nodes = (
"238 109 OFFCURVE",
"240 111 OFFCURVE",
"240 116 CURVE SMOOTH",
"240 120 OFFCURVE",
"238 122 OFFCURVE",
"234 122 CURVE SMOOTH",
"229 122 OFFCURVE",
"227 120 OFFCURVE",
"227 116 CURVE SMOOTH",
"227 111 OFFCURVE",
"229 109 OFFCURVE",
"234 109 CURVE SMOOTH"
);
}
);
width = 370;
}
);
},
{
glyphname = "kashida-ar";
layers = (
{
layerId = m01;
paths = (
{
closed = 1;
nodes = (
"173 66 LINE",
"-67 66 LINE",
"0 109 LINE",
"0 -48 LINE",
"-69 0 LINE",
"182 0 LINE",
"115 -45 LINE",
"115 110 LINE"
);
}
);
width = 105;
}
);
unicode = 0640;
},
{
glyphname = "fehDotless_alefMaksura-ar";
layers = (
{
anchors = (
{
name = bottom_1;
position = "{479, 145}";
},
{
name = bottom_2;
position = "{272, -55}";
},
{
name = caret_1;
position = "{200, -5}";
},
{
name = top_1;
position = "{226, 346}";
},
{
name = top_2;
position = "{66, 191}";
}
);
layerId = m01;
paths = (
{
closed = 1;
nodes = (
"210 -2 OFFCURVE",
"756 -7 OFFCURVE",
"934 17 CURVE SMOOTH",
"938 18 OFFCURVE",
"941 21 OFFCURVE",
"945 25 CURVE SMOOTH",
"961 41 OFFCURVE",
"982 56 OFFCURVE",
"1015 68 CURVE",
"859 55 OFFCURVE",
"415 49 OFFCURVE",
"206 61 CURVE SMOOTH",
"161 64 OFFCURVE",
"125 78 OFFCURVE",
"110 92 CURVE SMOOTH",
"107 95 OFFCURVE",
"107 102 OFFCURVE",
"112 100 CURVE SMOOTH",
"116 98 OFFCURVE",
"119 94 OFFCURVE",
"123 92 CURVE SMOOTH",
"143 80 OFFCURVE",
"171 71 OFFCURVE",
"200 70 CURVE SMOOTH",
"271 67 OFFCURVE",
"361 73 OFFCURVE",
"403 78 CURVE SMOOTH",
"423 80 OFFCURVE",
"454 90 OFFCURVE",
"458 113 CURVE SMOOTH",
"481 246 OFFCURVE",
"407 393 OFFCURVE",
"313 393 CURVE SMOOTH",
"216 393 OFFCURVE",
"143 203 OFFCURVE",
"233 159 CURVE SMOOTH",
"273 140 OFFCURVE",
"341 147 OFFCURVE",
"379 153 CURVE",
"384 146 LINE",
"356 139 OFFCURVE",
"269 134 OFFCURVE",
"229 147 CURVE SMOOTH",
"190 159 OFFCURVE",
"184 212 OFFCURVE",
"131 212 CURVE SMOOTH",
"66 212 OFFCURVE",
"10 135 OFFCURVE",
"10 67 CURVE SMOOTH",
"10 11 OFFCURVE",
"71 10 OFFCURVE",
"103 7 CURVE SMOOTH"
);
},
{
closed = 1;
nodes = (
"315 267 OFFCURVE",
"313 269 OFFCURVE",
"313 274 CURVE SMOOTH",
"313 278 OFFCURVE",
"315 280 OFFCURVE",
"320 280 CURVE SMOOTH",
"324 280 OFFCURVE",
"326 278 OFFCURVE",
"326 274 CURVE SMOOTH",
"326 269 OFFCURVE",
"324 267 OFFCURVE",
"320 267 CURVE SMOOTH"
);
}
);
width = 1025;
}
);
},
{
glyphname = "endofayah-ar";
layers = (
{
guideLines = (
{
angle = 90;
position = "{185, 239}";
},
{
angle = 180;
position = "{350, 104}";
},
{
angle = 202.5;
position = "{185, 104}";
},
{
angle = 247.5;
position = "{185, 104}";
},
{
angle = 225;
position = "{185, 104}";
}
);
layerId = m01;
paths = (
{
closed = 1;
nodes = (
"249 -11 OFFCURVE",
"300 41 OFFCURVE",
"300 104 CURVE SMOOTH",
"300 167 OFFCURVE",
"249 219 OFFCURVE",
"185 219 CURVE SMOOTH",
"122 219 OFFCURVE",
"70 167 OFFCURVE",
"70 104 CURVE SMOOTH",
"70 41 OFFCURVE",
"122 -11 OFFCURVE",
"185 -11 CURVE SMOOTH"
);
},
{
closed = 1;
nodes = (
"147 0 OFFCURVE",
"161 37 OFFCURVE",
"176 70 CURVE",
"181 64 LINE",
"173 65 OFFCURVE",
"166 68 OFFCURVE",
"160 73 CURVE",
"167 74 LINE",
"155 40 OFFCURVE",
"138 4 OFFCURVE",
"111 30 CURVE SMOOTH",
"85 57 OFFCURVE",
"121 74 OFFCURVE",
"155 86 CURVE",
"153 80 LINE",
"148 86 OFFCURVE",
"145 93 OFFCURVE",
"145 101 CURVE",
"151 95 LINE",
"118 80 OFFCURVE",
"81 66 OFFCURVE",
"81 104 CURVE SMOOTH",
"81 142 OFFCURVE",
"118 128 OFFCURVE",
"151 113 CURVE",
"145 107 LINE",
"146 116 OFFCURVE",
"149 124 OFFCURVE",
"154 130 CURVE",
"155 122 LINE",
"121 134 OFFCURVE",
"85 151 OFFCURVE",
"111 178 CURVE SMOOTH",
"138 204 OFFCURVE",
"155 168 OFFCURVE",
"167 134 CURVE",
"159 134 LINE",
"165 139 OFFCURVE",
"172 143 OFFCURVE",
"181 144 CURVE",
"176 138 LINE",
"161 171 OFFCURVE",
"147 208 OFFCURVE",
"185 208 CURVE SMOOTH",
"223 208 OFFCURVE",
"209 171 OFFCURVE",
"194 138 CURVE",
"190 144 LINE",
"197 143 OFFCURVE",
"203 140 OFFCURVE",
"209 136 CURVE",
"203 134 LINE",
"215 168 OFFCURVE",
"232 204 OFFCURVE",
"259 178 CURVE SMOOTH",
"285 151 OFFCURVE",
"249 134 OFFCURVE",
"215 122 CURVE",
"215 131 LINE",
"220 125 OFFCURVE",
"224 117 OFFCURVE",
"225 109 CURVE",
"219 113 LINE",
"252 128 OFFCURVE",
"289 142 OFFCURVE",
"289 104 CURVE SMOOTH",
"289 66 OFFCURVE",
"252 80 OFFCURVE",
"219 95 CURVE",
"225 100 LINE",
"224 92 OFFCURVE",
"221 84 OFFCURVE",
"216 78 CURVE",
"215 86 LINE",
"249 74 OFFCURVE",
"285 57 OFFCURVE",
"259 30 CURVE SMOOTH",
"232 4 OFFCURVE",
"215 40 OFFCURVE",
"203 74 CURVE",
"212 74 LINE",
"206 69 OFFCURVE",
"198 65 OFFCURVE",
"190 64 CURVE",
"194 70 LINE",
"209 37 OFFCURVE",
"223 0 OFFCURVE",
"185 0 CURVE SMOOTH"
);
},
{
closed = 1;
nodes = (
"200 78 OFFCURVE",
"211 90 OFFCURVE",
"211 104 CURVE SMOOTH",
"211 118 OFFCURVE",
"200 130 OFFCURVE",
"185 130 CURVE SMOOTH",
"171 130 OFFCURVE",
"159 118 OFFCURVE",
"159 104 CURVE SMOOTH",
"159 90 OFFCURVE",
"171 78 OFFCURVE",
"185 78 CURVE SMOOTH"
);
}
);
width = 370;
},
{
associatedMasterId = m01;
layerId = "38461C08-F54E-4BE4-9620-3C6CF5840E38";
name = "Color 1";
paths = (
{
closed = 1;
nodes = (
"249 -11 OFFCURVE",
"300 41 OFFCURVE",
"300 104 CURVE SMOOTH",
"300 167 OFFCURVE",
"249 219 OFFCURVE",
"185 219 CURVE SMOOTH",
"122 219 OFFCURVE",
"70 167 OFFCURVE",
"70 104 CURVE SMOOTH",
"70 41 OFFCURVE",
"122 -11 OFFCURVE",
"185 -11 CURVE SMOOTH"
);
}
);
width = 370;
},
{
associatedMasterId = m01;
layerId = "A1159DA2-F385-4606-A8B3-A130608730DA";
name = "Color 2";
paths = (
{
closed = 1;
nodes = (
"249 -11 OFFCURVE",
"300 41 OFFCURVE",
"300 104 CURVE SMOOTH",
"300 167 OFFCURVE",
"249 219 OFFCURVE",
"185 219 CURVE SMOOTH",
"122 219 OFFCURVE",
"70 167 OFFCURVE",
"70 104 CURVE SMOOTH",
"70 41 OFFCURVE",
"122 -11 OFFCURVE",
"185 -11 CURVE SMOOTH"
);
},
{
closed = 1;
nodes = (
"147 0 OFFCURVE",
"161 37 OFFCURVE",
"176 70 CURVE",
"181 64 LINE",
"173 65 OFFCURVE",
"166 68 OFFCURVE",
"160 73 CURVE",
"167 74 LINE",
"155 40 OFFCURVE",
"138 4 OFFCURVE",
"111 30 CURVE SMOOTH",
"85 57 OFFCURVE",
"121 74 OFFCURVE",
"155 86 CURVE",
"153 80 LINE",
"148 86 OFFCURVE",
"145 93 OFFCURVE",
"145 101 CURVE",
"151 95 LINE",
"118 80 OFFCURVE",
"81 66 OFFCURVE",
"81 104 CURVE SMOOTH",
"81 142 OFFCURVE",
"118 128 OFFCURVE",
"151 113 CURVE",
"145 107 LINE",
"146 116 OFFCURVE",
"149 124 OFFCURVE",
"154 130 CURVE",
"155 122 LINE",
"121 134 OFFCURVE",
"85 151 OFFCURVE",
"111 178 CURVE SMOOTH",
"138 204 OFFCURVE",
"155 168 OFFCURVE",
"167 134 CURVE",
"159 134 LINE",
"165 139 OFFCURVE",
"172 143 OFFCURVE",
"181 144 CURVE",
"176 138 LINE",
"161 171 OFFCURVE",
"147 208 OFFCURVE",
"185 208 CURVE SMOOTH",
"223 208 OFFCURVE",
"209 171 OFFCURVE",
"194 138 CURVE",
"190 144 LINE",
"197 143 OFFCURVE",
"203 140 OFFCURVE",
"209 136 CURVE",
"203 134 LINE",
"215 168 OFFCURVE",
"232 204 OFFCURVE",
"259 178 CURVE SMOOTH",
"285 151 OFFCURVE",
"249 134 OFFCURVE",
"215 122 CURVE",
"215 131 LINE",
"220 125 OFFCURVE",
"224 117 OFFCURVE",
"225 109 CURVE",
"219 113 LINE",
"252 128 OFFCURVE",
"289 142 OFFCURVE",
"289 104 CURVE SMOOTH",
"289 66 OFFCURVE",
"252 80 OFFCURVE",
"219 95 CURVE",
"225 100 LINE",
"224 92 OFFCURVE",
"221 84 OFFCURVE",
"216 78 CURVE",
"215 86 LINE",
"249 74 OFFCURVE",
"285 57 OFFCURVE",
"259 30 CURVE SMOOTH",
"232 4 OFFCURVE",
"215 40 OFFCURVE",
"203 74 CURVE",
"212 74 LINE",
"206 69 OFFCURVE",
"198 65 OFFCURVE",
"190 64 CURVE",
"194 70 LINE",
"209 37 OFFCURVE",
"223 0 OFFCURVE",
"185 0 CURVE SMOOTH"
);
},
{
closed = 1;
nodes = (
"200 78 OFFCURVE",
"211 90 OFFCURVE",
"211 104 CURVE SMOOTH",
"211 118 OFFCURVE",
"200 130 OFFCURVE",
"185 130 CURVE SMOOTH",
"171 130 OFFCURVE",
"159 118 OFFCURVE",
"159 104 CURVE SMOOTH",
"159 90 OFFCURVE",
"171 78 OFFCURVE",
"185 78 CURVE SMOOTH"
);
}
);
width = 370;
},
{
associatedMasterId = m01;
guideLines = (
{
angle = 90;
position = "{185, 239}";
},
{
angle = 180;
position = "{350, 104}";
},
{
angle = 202.5;
position = "{185, 104}";
},
{
angle = 247.5;
position = "{185, 104}";
},
{
angle = 225;
position = "{185, 104}";
}
);
layerId = "F1582E70-E757-409A-AE56-0C2D8B4714EF";
name = "Color 0";
paths = (
{
closed = 1;
nodes = (
"153 190 OFFCURVE",
"161 198 OFFCURVE",
"161 209 CURVE SMOOTH",
"161 219 OFFCURVE",
"153 227 OFFCURVE",
"143 227 CURVE SMOOTH",
"132 227 OFFCURVE",
"124 219 OFFCURVE",
"124 209 CURVE SMOOTH",
"124 198 OFFCURVE",
"132 190 OFFCURVE",
"143 190 CURVE SMOOTH"
);
},
{
closed = 1;
nodes = (
"238 190 OFFCURVE",
"246 198 OFFCURVE",
"246 209 CURVE SMOOTH",
"246 219 OFFCURVE",
"238 227 OFFCURVE",
"228 227 CURVE SMOOTH",
"217 227 OFFCURVE",
"209 219 OFFCURVE",
"209 209 CURVE SMOOTH",
"209 198 OFFCURVE",
"217 190 OFFCURVE",
"228 190 CURVE SMOOTH"
);
},
{
closed = 1;
nodes = (
"153 -19 OFFCURVE",
"161 -11 OFFCURVE",
"161 0 CURVE SMOOTH",
"161 10 OFFCURVE",
"153 18 OFFCURVE",
"143 18 CURVE SMOOTH",
"132 18 OFFCURVE",
"124 10 OFFCURVE",
"124 0 CURVE SMOOTH",
"124 -11 OFFCURVE",
"132 -19 OFFCURVE",
"143 -19 CURVE SMOOTH"
);
},
{
closed = 1;
nodes = (
"238 -19 OFFCURVE",
"246 -11 OFFCURVE",
"246 0 CURVE SMOOTH",
"246 10 OFFCURVE",
"238 18 OFFCURVE",
"228 18 CURVE SMOOTH",
"217 18 OFFCURVE",
"209 10 OFFCURVE",
"209 0 CURVE SMOOTH",
"209 -11 OFFCURVE",
"217 -19 OFFCURVE",
"228 -19 CURVE SMOOTH"
);
},
{
closed = 1;
nodes = (
"91 128 OFFCURVE",
"99 136 OFFCURVE",
"99 147 CURVE SMOOTH",
"99 157 OFFCURVE",
"91 165 OFFCURVE",
"81 165 CURVE SMOOTH",
"70 165 OFFCURVE",
"62 157 OFFCURVE",
"62 147 CURVE SMOOTH",
"62 136 OFFCURVE",
"70 128 OFFCURVE",
"81 128 CURVE SMOOTH"
);
},
{
closed = 1;
nodes = (
"91 43 OFFCURVE",
"99 51 OFFCURVE",
"99 62 CURVE SMOOTH",
"99 72 OFFCURVE",
"91 80 OFFCURVE",
"81 80 CURVE SMOOTH",
"70 80 OFFCURVE",
"62 72 OFFCURVE",
"62 62 CURVE SMOOTH",
"62 51 OFFCURVE",
"70 43 OFFCURVE",
"81 43 CURVE SMOOTH"
);
},
{
closed = 1;
nodes = (
"300 128 OFFCURVE",
"308 136 OFFCURVE",
"308 147 CURVE SMOOTH",
"308 157 OFFCURVE",
"300 165 OFFCURVE",
"290 165 CURVE SMOOTH",
"279 165 OFFCURVE",
"271 157 OFFCURVE",
"271 147 CURVE SMOOTH",
"271 136 OFFCURVE",
"279 128 OFFCURVE",
"290 128 CURVE SMOOTH"
);
},
{
closed = 1;
nodes = (
"300 43 OFFCURVE",
"308 51 OFFCURVE",
"308 62 CURVE SMOOTH",
"308 72 OFFCURVE",
"300 80 OFFCURVE",
"290 80 CURVE SMOOTH",
"279 80 OFFCURVE",
"271 72 OFFCURVE",
"271 62 CURVE SMOOTH",
"271 51 OFFCURVE",
"279 43 OFFCURVE",
"290 43 CURVE SMOOTH"
);
}
);
width = 370;
}
);
unicode = 06DD;
},
{
glyphname = "dotabove-ar";
layers = (
{
anchors = (
{
name = _top;
position = "{45, 25}";
}
);
layerId = m01;
paths = (
{
closed = 1;
nodes = (
"64 76 LINE",
"56 82 LINE",
"0 6 LINE",
"8 0 LINE"
);
}
);
width = 64;
}
);
category = Mark;
subCategory = Nonspacing;
},
{
glyphname = "wasla-ar";
layers = (
{
layerId = m01;
paths = (
{
closed = 0;
nodes = (
"0 1 LINE"
);
}
);
width = 100;
}
);
category = Mark;
subCategory = Nonspacing;
},
{
glyphname = "hamzaabove-ar";
layers = (
{
layerId = m01;
paths = (
{
closed = 0;
nodes = (
"0 1 LINE"
);
}
);
width = 100;
}
);
unicode = 0654;
category = Mark;
subCategory = Nonspacing;
},
{
glyphname = "hamzabelow-ar";
layers = (
{
layerId = m01;
paths = (
{
closed = 0;
nodes = (
"0 1 LINE"
);
}
);
width = 100;
}
);
unicode = 0655;
category = Mark;
subCategory = Nonspacing;
},
{
glyphname = "fatha-ar";
layers = (
{
anchors = (
{
name = _fatha;
position = "{46, 0}";
}
);
layerId = m01;
name = "Color 0";
paths = (
{
closed = 1;
nodes = (
"71 0 OFFCURVE",
"92 21 OFFCURVE",
"92 46 CURVE SMOOTH",
"92 71 OFFCURVE",
"71 92 OFFCURVE",
"46 92 CURVE SMOOTH",
"21 92 OFFCURVE",
"0 71 OFFCURVE",
"0 46 CURVE SMOOTH",
"0 21 OFFCURVE",
"21 0 OFFCURVE",
"46 0 CURVE SMOOTH"
);
}
);
width = 92;
}
);
unicode = 064E;
category = Mark;
subCategory = Nonspacing;
},
{
glyphname = "madda-ar";
layers = (
{
layerId = m01;
paths = (
{
closed = 0;
nodes = (
"0 1 LINE"
);
}
);
width = 100;
}
);
unicode = 0653;
category = Mark;
subCategory = Nonspacing;
},
